%TF.GenerationSoftware,KiCad,Pcbnew,9.0.1*%
%TF.CreationDate,2025-12-31T09:43:48+05:30*%
%TF.ProjectId,Power Supply - Project,506f7765-7220-4537-9570-706c79202d20,rev?*%
%TF.SameCoordinates,Original*%
%TF.FileFunction,Plated,1,2,PTH,Mixed*%
%TF.FilePolarity,Positive*%
%FSLAX46Y46*%
G04 Gerber Fmt 4.6, Leading zero omitted, Abs format (unit mm)*
G04 Created by KiCad (PCBNEW 9.0.1) date 2025-12-31 09:43:48*
%MOMM*%
%LPD*%
G01*
G04 APERTURE LIST*
%TA.AperFunction,ViaDrill*%
%ADD10C,0.300000*%
%TD*%
%TA.AperFunction,ComponentDrill*%
%ADD11C,0.700000*%
%TD*%
%TA.AperFunction,ComponentDrill*%
%ADD12C,0.800000*%
%TD*%
%TA.AperFunction,ComponentDrill*%
%ADD13C,0.900000*%
%TD*%
%TA.AperFunction,ComponentDrill*%
%ADD14C,1.000000*%
%TD*%
G04 aperture for slot hole*
%TA.AperFunction,ComponentDrill*%
%ADD15C,1.000000*%
%TD*%
%TA.AperFunction,ComponentDrill*%
%ADD16C,1.100000*%
%TD*%
%TA.AperFunction,ComponentDrill*%
%ADD17C,1.520000*%
%TD*%
G04 APERTURE END LIST*
D10*
X85598000Y-118872000D03*
X85598000Y-120142000D03*
D11*
%TO.C,R1*%
X89154000Y-94742000D03*
%TO.C,R3*%
X89154000Y-112268000D03*
%TO.C,R2*%
X89154000Y-115824000D03*
%TO.C,R1*%
X96774000Y-94742000D03*
%TO.C,R3*%
X96774000Y-112268000D03*
%TO.C,R2*%
X96774000Y-115824000D03*
D12*
%TO.C,C2*%
X73954000Y-121412000D03*
%TO.C,C3*%
X74716000Y-86868000D03*
%TO.C,C2*%
X76454000Y-121412000D03*
%TO.C,C3*%
X77216000Y-86868000D03*
%TO.C,C1*%
X80050000Y-86868000D03*
X82550000Y-86868000D03*
D13*
%TO.C,S1*%
X89054000Y-88392000D03*
X91554000Y-88392000D03*
X94054000Y-88392000D03*
%TO.C,D1*%
X94506000Y-102870000D03*
X94506000Y-105410000D03*
D14*
%TO.C,J3*%
X78486000Y-78740000D03*
%TO.C,J4*%
X78486000Y-126746000D03*
%TO.C,J3*%
X81026000Y-78740000D03*
%TO.C,J4*%
X81026000Y-126746000D03*
D15*
%TO.C,J5*%
X81328000Y-105520000D02*
X81328000Y-103520000D01*
D14*
%TO.C,J3*%
X83566000Y-78740000D03*
%TO.C,J4*%
X83566000Y-126746000D03*
D15*
%TO.C,J5*%
X85328000Y-109220000D02*
X83328000Y-109220000D01*
X87328000Y-105520000D02*
X87328000Y-103520000D01*
D14*
%TO.C,J2*%
X101600000Y-78663800D03*
X101600000Y-81203800D03*
%TO.C,J1*%
X101600000Y-124460000D03*
X101600000Y-127000000D03*
D16*
%TO.C,U2*%
X75692000Y-117094000D03*
%TO.C,U1*%
X75946000Y-92964000D03*
%TO.C,U2*%
X78232000Y-117094000D03*
%TO.C,U1*%
X78486000Y-92964000D03*
%TO.C,U2*%
X80772000Y-117094000D03*
%TO.C,U1*%
X81026000Y-92964000D03*
D17*
%TO.C,J6*%
X90424000Y-80772000D03*
%TO.C,J7*%
X90424000Y-124968000D03*
%TO.C,J6*%
X95504000Y-80772000D03*
%TO.C,J7*%
X95504000Y-124968000D03*
M02*
