%TF.GenerationSoftware,KiCad,Pcbnew,9.0.1*%
%TF.CreationDate,2025-12-31T09:43:45+05:30*%
%TF.ProjectId,Power Supply - Project,506f7765-7220-4537-9570-706c79202d20,rev?*%
%TF.SameCoordinates,Original*%
%TF.FileFunction,Soldermask,Bot*%
%TF.FilePolarity,Negative*%
%FSLAX46Y46*%
G04 Gerber Fmt 4.6, Leading zero omitted, Abs format (unit mm)*
G04 Created by KiCad (PCBNEW 9.0.1) date 2025-12-31 09:43:45*
%MOMM*%
%LPD*%
G01*
G04 APERTURE LIST*
G04 Aperture macros list*
%AMRoundRect*
0 Rectangle with rounded corners*
0 $1 Rounding radius*
0 $2 $3 $4 $5 $6 $7 $8 $9 X,Y pos of 4 corners*
0 Add a 4 corners polygon primitive as box body*
4,1,4,$2,$3,$4,$5,$6,$7,$8,$9,$2,$3,0*
0 Add four circle primitives for the rounded corners*
1,1,$1+$1,$2,$3*
1,1,$1+$1,$4,$5*
1,1,$1+$1,$6,$7*
1,1,$1+$1,$8,$9*
0 Add four rect primitives between the rounded corners*
20,1,$1+$1,$2,$3,$4,$5,0*
20,1,$1+$1,$4,$5,$6,$7,0*
20,1,$1+$1,$6,$7,$8,$9,0*
20,1,$1+$1,$8,$9,$2,$3,0*%
G04 Aperture macros list end*
%ADD10R,3.000000X3.000000*%
%ADD11C,3.000000*%
%ADD12C,1.400000*%
%ADD13O,1.400000X1.400000*%
%ADD14R,1.700000X1.700000*%
%ADD15C,1.700000*%
%ADD16C,1.600000*%
%ADD17R,1.905000X2.000000*%
%ADD18O,1.905000X2.000000*%
%ADD19R,1.900000X1.900000*%
%ADD20C,1.900000*%
%ADD21R,1.800000X1.800000*%
%ADD22C,1.800000*%
%ADD23R,3.500000X3.500000*%
%ADD24RoundRect,0.750000X-0.750000X-1.000000X0.750000X-1.000000X0.750000X1.000000X-0.750000X1.000000X0*%
%ADD25RoundRect,0.875000X-0.875000X-0.875000X0.875000X-0.875000X0.875000X0.875000X-0.875000X0.875000X0*%
G04 APERTURE END LIST*
D10*
%TO.C,J7*%
X90424000Y-124968000D03*
D11*
X95504000Y-124968000D03*
%TD*%
D12*
%TO.C,R1*%
X96774000Y-94742000D03*
D13*
X89154000Y-94742000D03*
%TD*%
D14*
%TO.C,J2*%
X101600000Y-78663800D03*
D15*
X101600000Y-81203800D03*
%TD*%
D16*
%TO.C,C2*%
X76454000Y-121412000D03*
X73954000Y-121412000D03*
%TD*%
D12*
%TO.C,R2*%
X89154000Y-115824000D03*
D13*
X96774000Y-115824000D03*
%TD*%
D17*
%TO.C,U1*%
X81026000Y-92964000D03*
D18*
X78486000Y-92964000D03*
X75946000Y-92964000D03*
%TD*%
D14*
%TO.C,J4*%
X78486000Y-126746000D03*
D15*
X81026000Y-126746000D03*
X83566000Y-126746000D03*
%TD*%
D16*
%TO.C,C3*%
X77216000Y-86868000D03*
X74716000Y-86868000D03*
%TD*%
D19*
%TO.C,S1*%
X94054000Y-88392000D03*
D20*
X91554000Y-88392000D03*
X89054000Y-88392000D03*
%TD*%
D12*
%TO.C,R3*%
X96774000Y-112268000D03*
D13*
X89154000Y-112268000D03*
%TD*%
D14*
%TO.C,J3*%
X78486000Y-78740000D03*
D15*
X81026000Y-78740000D03*
X83566000Y-78740000D03*
%TD*%
D16*
%TO.C,C1*%
X82550000Y-86868000D03*
X80050000Y-86868000D03*
%TD*%
D21*
%TO.C,D1*%
X94506000Y-105410000D03*
D22*
X94506000Y-102870000D03*
%TD*%
D14*
%TO.C,J1*%
X101600000Y-124460000D03*
D15*
X101600000Y-127000000D03*
%TD*%
D17*
%TO.C,U2*%
X75692000Y-117094000D03*
D18*
X78232000Y-117094000D03*
X80772000Y-117094000D03*
%TD*%
D23*
%TO.C,J5*%
X87328000Y-104520000D03*
D24*
X81328000Y-104520000D03*
D25*
X84328000Y-109220000D03*
%TD*%
D10*
%TO.C,J6*%
X90424000Y-80772000D03*
D11*
X95504000Y-80772000D03*
%TD*%
M02*
